<svg width="406" height="348" viewBox="0 0 406 348" fill="none" xmlns="http://www.w3.org/2000/svg">
<g clip-path="url(#clip0_1523_2315)">
<path d="M119.316 344.369C125.833 338.854 129.792 330.143 128.754 321.663C127.715 313.182 121.285 305.386 112.944 303.585C104.603 301.785 95.0947 306.77 92.5613 314.928C91.167 299.199 89.5603 282.81 81.2084 269.415C73.6459 257.286 60.5476 248.607 46.352 247.055C32.1564 245.502 17.2102 251.366 8.3569 262.585C-0.496394 273.804 -2.66408 290.114 3.53654 302.995C8.10431 312.483 16.5198 319.545 25.3371 325.29C53.8289 343.697 88.0012 351.182 121.566 346.369" fill="#F2F2F2"/>
<path d="M22.3947 251.69C34.1079 261.243 44.8534 271.928 54.476 283.588C69.5353 301.775 81.7215 322.166 90.6099 344.051C91.2606 345.647 88.6715 346.342 88.0281 344.763C82.3757 330.927 75.3826 317.678 67.1491 305.208C54.3098 285.727 38.5799 268.32 20.5015 253.586C19.1648 252.496 21.0691 250.609 22.3947 251.69Z" fill="white"/>
<path d="M123.817 344.369C117.3 338.854 113.341 330.143 114.379 321.663C115.417 313.182 121.848 305.386 130.189 303.585C138.53 301.785 148.038 306.77 150.572 314.928C151.966 299.199 153.572 282.81 161.924 269.415C169.487 257.286 182.585 248.607 196.781 247.055C210.976 245.502 225.923 251.366 234.776 262.585C243.629 273.804 245.797 290.114 239.596 302.995C235.028 312.483 226.613 319.545 217.796 325.29C189.304 343.697 155.132 351.182 121.566 346.369" fill="#F2F2F2"/>
<path d="M220.738 251.69C209.025 261.243 198.279 271.928 188.657 283.588C173.597 301.775 161.411 322.166 152.523 344.051C151.872 345.647 154.461 346.342 155.105 344.763C169.648 309.197 192.864 277.849 222.631 253.586C223.968 252.496 222.064 250.609 220.738 251.69Z" fill="white"/>
<path d="M143.158 156.548C155.215 156.548 164.99 146.761 164.99 134.688C164.99 122.615 155.215 112.828 143.158 112.828C131.1 112.828 121.326 122.615 121.326 134.688C121.326 146.761 131.1 156.548 143.158 156.548Z" fill="#F2F2F2"/>
<path d="M75.8445 59.332H226.259V67.5721H95.0463C87.3315 67.5721 79.6922 69.0936 72.5646 72.0498C65.437 75.006 58.9607 79.3389 53.5055 84.8012C48.0503 90.2635 43.7229 96.7482 40.7706 103.885C37.8183 111.022 36.2987 118.671 36.2987 126.396V220.013H19.84C19.1125 220.013 18.4148 219.724 17.9004 219.209C17.386 218.693 17.0969 217.995 17.0969 217.266V118.156C17.0969 110.431 18.6165 102.782 21.5688 95.645C24.5212 88.5081 28.8485 82.0234 34.3037 76.5611C39.7589 71.0988 46.2352 66.7659 53.3628 63.8097C60.4904 60.8535 68.1297 59.332 75.8445 59.332Z" fill="#F2F2F2"/>
<path d="M104.776 344.827V219.66H141.397V344.827C141.396 345.669 141.062 346.475 140.468 347.07C139.874 347.665 139.068 348 138.228 348.001H107.945C107.105 348 106.3 347.665 105.705 347.07C105.111 346.475 104.777 345.669 104.776 344.827Z" fill="#3F3D56"/>
<path d="M9.35016 217.19V115.411C9.36843 99.2078 15.8047 83.674 27.2468 72.2169C38.6889 60.7598 54.2026 54.3152 70.3842 54.2969H225.555V220.716H12.8714C11.9378 220.715 11.0428 220.343 10.3827 219.682C9.72257 219.021 9.35123 218.125 9.35016 217.19ZM224.147 55.7072H70.3842C54.576 55.7252 39.4204 62.0211 28.2423 73.2137C17.0642 84.4064 10.7765 99.5818 10.7587 115.411V217.19C10.7593 217.751 10.9821 218.289 11.3781 218.686C11.7742 219.082 12.3113 219.305 12.8714 219.306H224.147V55.7072Z" fill="#3F3D56"/>
<path d="M143.158 145.97C139.797 145.966 136.575 144.627 134.198 142.248C131.822 139.868 130.485 136.642 130.481 133.277V42.31C130.481 41.7492 130.258 41.2114 129.862 40.8148C129.466 40.4182 128.929 40.1951 128.369 40.1945H79.071C78.1374 40.1934 77.2424 39.8216 76.5823 39.1606C75.9222 38.4997 75.5508 37.6035 75.5497 36.6687V3.52584C75.5508 2.59106 75.9222 1.69487 76.5823 1.03389C77.2424 0.372897 78.1374 0.00108246 79.071 0H152.313C153.247 0.00106942 154.142 0.372883 154.802 1.03387C155.462 1.69487 155.833 2.59105 155.834 3.52584V133.277C155.831 136.642 154.494 139.868 152.117 142.248C149.741 144.627 146.519 145.966 143.158 145.97Z" fill="#0CBD92"/>
<path d="M231.189 52.8868C241.813 52.8645 252.011 57.069 259.539 64.5754C267.067 72.0818 271.309 82.2752 271.331 92.9131V208.779H350.208C353.376 208.772 356.418 210.026 358.663 212.265C360.908 214.504 362.173 217.544 362.18 220.717H191.047V92.9131C191.069 82.2752 195.311 72.0818 202.839 64.5754C210.367 57.069 220.565 52.8645 231.189 52.8868Z" fill="#3F3D56"/>
<path d="M221.556 118.869L229.869 153.251L392.467 113.838L384.155 79.4566C384.054 79.0362 383.849 78.6481 383.559 78.3281C383.269 78.0082 382.903 77.7669 382.494 77.6266C382.193 77.5205 381.874 77.4724 381.555 77.4851L287.566 28.7567C287.015 28.4751 286.382 28.3998 285.781 28.5446C285.179 28.6893 284.65 29.0444 284.287 29.5459L238.989 92.795L221.913 116.646C221.882 116.688 221.86 116.735 221.849 116.786C221.839 116.837 221.839 116.89 221.85 116.941C221.503 117.52 221.397 118.213 221.556 118.869Z" fill="white"/>
<path d="M221.85 116.941C221.858 116.985 221.875 117.028 221.9 117.066C221.924 117.105 221.956 117.138 221.993 117.163C222.037 117.194 222.087 117.215 222.14 117.225C222.192 117.235 222.246 117.235 222.298 117.224C222.383 117.201 222.458 117.149 222.509 117.078L222.568 116.996L223.457 115.751L239.604 93.211L284.888 29.9764C285.147 29.6181 285.525 29.3644 285.954 29.2614C286.383 29.1584 286.835 29.2129 287.228 29.415L380.488 77.7659L381.325 78.2009C381.359 78.2151 381.394 78.2273 381.429 78.2373C381.492 78.2258 381.556 78.2197 381.62 78.219C381.708 78.1896 381.781 78.1279 381.824 78.0464C381.847 78.0034 381.861 77.9564 381.866 77.9081C381.87 77.8597 381.865 77.8109 381.851 77.7645C381.837 77.7181 381.813 77.6749 381.782 77.6376C381.751 77.6002 381.713 77.5693 381.67 77.5466L381.555 77.4851L287.566 28.7567C287.015 28.4751 286.382 28.3998 285.781 28.5446C285.179 28.6893 284.65 29.0444 284.287 29.5459L238.989 92.795L221.913 116.646C221.882 116.688 221.86 116.735 221.849 116.786C221.839 116.837 221.839 116.89 221.85 116.941Z" fill="#3F3D56"/>
<path d="M270.684 120.444L274.303 120.846L301.165 123.826L318.972 125.8L320.024 125.917L342.245 108.538L343.096 107.873L348.345 103.769L367.017 89.1672L367.129 88.1416L373.77 28.1219C373.861 27.2954 373.62 26.4667 373.102 25.8175C372.583 25.1683 371.828 24.7514 371.003 24.6584L282.369 14.8272C281.544 14.7369 280.716 14.9778 280.068 15.4971C279.42 16.0165 279.003 16.7719 278.91 17.5979L274.227 59.9344L271.629 83.4065L269.304 104.405L268.227 114.157L267.913 116.982C267.823 117.809 268.064 118.637 268.584 119.286C269.103 119.935 269.858 120.352 270.684 120.444Z" fill="#E6E6E6"/>
<path d="M295.04 67.8362L333.434 72.094L347.049 73.6036C347.65 73.6702 348.259 73.6177 348.84 73.449C349.42 73.2802 349.962 72.9985 350.435 72.6201C350.907 72.2416 351.3 71.7737 351.591 71.2431C351.883 70.7125 352.067 70.1296 352.134 69.5277C352.2 68.9258 352.148 68.3166 351.979 67.735C351.811 67.1534 351.53 66.6107 351.152 66.138C350.774 65.6652 350.306 65.2716 349.776 64.9797C349.246 64.6877 348.664 64.5032 348.063 64.4365L331.128 62.5585L296.057 58.6646C294.843 58.5303 293.625 58.8843 292.671 59.6488C291.717 60.4134 291.106 61.5258 290.971 62.7416C290.836 63.9575 291.189 65.1771 291.952 66.1324C292.715 67.0878 293.826 67.7006 295.04 67.8362Z" fill="white"/>
<path d="M292.854 84.8426C292.953 84.8604 293.052 84.8781 293.153 84.8878L337.722 89.8317L345.163 90.6588C346.378 90.7933 347.596 90.4392 348.55 89.6744C349.503 88.9096 350.115 87.7968 350.249 86.5807C350.383 85.3646 350.03 84.1448 349.266 83.1898C348.502 82.2347 347.391 81.6226 346.176 81.4881L335.416 80.2961L300.112 76.3791L294.171 75.7198C292.983 75.5871 291.79 75.9223 290.844 76.6544C289.898 77.3866 289.273 78.4583 289.102 79.6431C288.931 80.8278 289.227 82.0328 289.927 83.0031C290.628 83.9734 291.677 84.6331 292.854 84.8426Z" fill="white"/>
<path d="M287.81 99.9205C288.175 100.528 288.675 101.042 289.271 101.425C289.867 101.807 290.544 102.046 291.247 102.124L309.514 104.15L342.049 107.759L342.056 107.758L343.096 107.874L348.345 103.769C348.377 103.458 348.377 103.143 348.345 102.832C348.235 101.785 347.77 100.807 347.029 100.06C346.288 99.3133 345.315 98.8422 344.27 98.7247L339.751 98.222L321.822 96.2354L308.923 94.8029L292.26 92.9538C291.406 92.8591 290.543 93.0055 289.768 93.3764C288.992 93.7474 288.336 94.328 287.873 95.0527C287.41 95.7775 287.159 96.6174 287.148 97.4776C287.137 98.3378 287.366 99.184 287.81 99.9205Z" fill="white"/>
<path d="M313.468 47.0478L323.021 48.1072L327.24 48.5764L333.614 49.2827C334.828 49.4172 336.046 49.0631 337 48.2983C337.954 47.5335 338.565 46.4206 338.7 45.2045C338.834 43.9884 338.48 42.7687 337.716 41.8136C336.953 40.8586 335.841 40.2465 334.627 40.112L314.486 37.8798C313.271 37.7447 312.053 38.098 311.099 38.8621C310.145 39.6263 309.534 40.7385 309.399 41.9543C309.264 43.17 309.617 44.3897 310.38 45.3449C311.143 46.3001 312.254 46.9127 313.468 47.0478Z" fill="white"/>
<path d="M235.356 72.5854L247.002 120.758L266.441 124.459L284.421 127.887L303.713 131.562L309.878 132.737C310.239 132.805 310.61 132.796 310.967 132.709C311.324 132.623 311.658 132.461 311.948 132.235L316.893 128.368L320.024 125.919L342.245 108.541L328.116 50.1008C327.977 49.5194 327.672 48.9907 327.24 48.5783C326.861 48.2133 326.396 47.9499 325.888 47.8122C325.381 47.6745 324.846 47.6671 324.335 47.7905L237.663 68.7993C236.856 68.9954 236.16 69.5044 235.727 70.2143C235.295 70.9242 235.161 71.777 235.356 72.5854Z" fill="#0CBD92"/>
<path d="M262.061 110.907C262.35 112.095 263.097 113.12 264.14 113.757C265.182 114.394 266.435 114.591 267.622 114.304L318.479 101.977C319.665 101.688 320.689 100.939 321.325 99.8953C321.961 98.8516 322.158 97.5979 321.872 96.4092C321.859 96.3502 321.842 96.2921 321.822 96.2352C321.498 95.0891 320.742 94.1133 319.715 93.5124C318.688 92.9115 317.468 92.732 316.311 93.0116L265.454 105.339C264.268 105.628 263.244 106.376 262.608 107.42C261.971 108.464 261.775 109.718 262.061 110.907Z" fill="white"/>
<path d="M266.44 124.458L284.421 127.886L322.511 118.653C323.698 118.366 324.722 117.617 325.359 116.573C325.995 115.529 326.191 114.274 325.904 113.086C325.616 111.897 324.869 110.871 323.826 110.234C322.783 109.597 321.53 109.4 320.343 109.688L269.486 122.016C268.423 122.271 267.487 122.899 266.847 123.787C266.693 123.999 266.557 124.223 266.44 124.458Z" fill="white"/>
<path d="M303.713 131.562L309.878 132.736C310.239 132.805 310.61 132.795 310.967 132.709C311.324 132.622 311.658 132.461 311.948 132.235L316.893 128.367L303.713 131.562Z" fill="white"/>
<path d="M272.309 85.0766C272.597 86.265 273.345 87.2901 274.387 87.9271C275.43 88.5641 276.682 88.7608 277.869 88.4741L297.567 83.6994C298.754 83.4101 299.777 82.6614 300.413 81.6177C301.049 80.574 301.246 79.3203 300.961 78.1316C300.807 77.4928 300.518 76.8947 300.112 76.3784C299.567 75.6804 298.833 75.1541 297.997 74.8626C297.162 74.571 296.26 74.5264 295.4 74.7341L275.702 79.5088C274.515 79.7967 273.49 80.5451 272.854 81.5892C272.218 82.6333 272.021 83.8878 272.309 85.0766Z" fill="white"/>
<path d="M284.42 127.884L303.715 131.56L309.878 132.735C310.238 132.803 310.609 132.793 310.966 132.707C311.322 132.62 311.657 132.459 311.947 132.234L316.895 128.365L315.159 128.786L311.493 131.65C311.286 131.811 311.047 131.926 310.792 131.988C310.537 132.049 310.272 132.056 310.015 132.008L305.452 131.139L286.157 127.463L284.42 127.884ZM342.054 107.759L342.242 108.536L343.098 107.87L342.054 107.759ZM284.42 127.884L303.715 131.56L309.878 132.735C310.238 132.803 310.609 132.793 310.966 132.707C311.322 132.62 311.657 132.459 311.947 132.234L316.895 128.365L315.159 128.786L311.493 131.65C311.286 131.811 311.047 131.926 310.792 131.988C310.537 132.049 310.272 132.056 310.015 132.008L305.452 131.139L286.157 127.463L284.42 127.884ZM284.42 127.884L303.715 131.56L309.878 132.735C310.238 132.803 310.609 132.793 310.966 132.707C311.322 132.62 311.657 132.459 311.947 132.234L316.895 128.365L315.159 128.786L311.493 131.65C311.286 131.811 311.047 131.926 310.792 131.988C310.537 132.049 310.272 132.056 310.015 132.008L305.452 131.139L286.157 127.463L284.42 127.884ZM221.556 118.867L243.329 208.924C243.491 209.589 243.909 210.163 244.493 210.52C245.077 210.877 245.778 210.987 246.443 210.827L404.027 172.629C404.692 172.468 405.265 172.048 405.621 171.464C405.978 170.879 406.088 170.177 405.927 169.511L384.155 79.454C384.054 79.0336 383.849 78.6454 383.559 78.3255C383.269 78.0056 382.903 77.7643 382.494 77.624C382.193 77.5179 381.874 77.4698 381.555 77.4824C381.183 77.4932 380.818 77.5893 380.488 77.7633C380.336 77.8356 380.193 77.9248 380.061 78.0292L367.128 88.1411L348.345 102.832L342.053 107.754L342.054 107.759L342.049 107.76L318.974 125.797L315.159 128.786L311.493 131.65C311.286 131.811 311.047 131.926 310.792 131.988C310.537 132.049 310.272 132.056 310.015 132.008L305.452 131.139L286.157 127.463L266.845 123.785L224.546 115.725C224.186 115.653 223.814 115.661 223.457 115.749C222.976 115.866 222.539 116.12 222.197 116.479C222.067 116.62 221.95 116.774 221.85 116.938C221.503 117.517 221.397 118.21 221.556 118.867ZM284.42 127.884L303.715 131.56L309.878 132.735C310.238 132.803 310.609 132.793 310.966 132.707C311.322 132.62 311.657 132.459 311.947 132.234L316.895 128.365L315.159 128.786L311.493 131.65C311.286 131.811 311.047 131.926 310.792 131.988C310.537 132.049 310.272 132.056 310.015 132.008L305.452 131.139L286.157 127.463L284.42 127.884ZM284.42 127.884L303.715 131.56L309.878 132.735C310.238 132.803 310.609 132.793 310.966 132.707C311.322 132.62 311.657 132.459 311.947 132.234L316.895 128.365L315.159 128.786L311.493 131.65C311.286 131.811 311.047 131.926 310.792 131.988C310.537 132.049 310.272 132.056 310.015 132.008L305.452 131.139L286.157 127.463L284.42 127.884ZM284.42 127.884L303.715 131.56L309.878 132.735C310.238 132.803 310.609 132.793 310.966 132.707C311.322 132.62 311.657 132.459 311.947 132.234L316.895 128.365L315.159 128.786L311.493 131.65C311.286 131.811 311.047 131.926 310.792 131.988C310.537 132.049 310.272 132.056 310.015 132.008L305.452 131.139L286.157 127.463L284.42 127.884Z" fill="white"/>
<path d="M284.42 127.884L303.715 131.56L309.878 132.735C310.238 132.803 310.609 132.793 310.966 132.706C311.322 132.62 311.657 132.459 311.947 132.234L316.895 128.365L315.159 128.786L311.493 131.65C311.286 131.811 311.047 131.926 310.792 131.988C310.537 132.049 310.272 132.056 310.015 132.008L305.452 131.139L286.157 127.463L284.42 127.884ZM342.054 107.759L342.242 108.536L343.098 107.87L342.054 107.759ZM284.42 127.884L303.715 131.56L309.878 132.735C310.238 132.803 310.609 132.793 310.966 132.706C311.322 132.62 311.657 132.459 311.947 132.234L316.895 128.365L315.159 128.786L311.493 131.65C311.286 131.811 311.047 131.926 310.792 131.988C310.537 132.049 310.272 132.056 310.015 132.008L305.452 131.139L286.157 127.463L284.42 127.884ZM284.42 127.884L303.715 131.56L309.878 132.735C310.238 132.803 310.609 132.793 310.966 132.706C311.322 132.62 311.657 132.459 311.947 132.234L316.895 128.365L315.159 128.786L311.493 131.65C311.286 131.811 311.047 131.926 310.792 131.988C310.537 132.049 310.272 132.056 310.015 132.008L305.452 131.139L286.157 127.463L284.42 127.884ZM222.568 116.994L222.663 117.066C222.679 117.039 222.707 117.016 222.728 116.988C222.942 116.766 223.207 116.6 223.5 116.505C223.793 116.411 224.105 116.391 224.408 116.447L266.442 124.453L284.42 127.884L303.715 131.56L309.878 132.735C310.238 132.803 310.609 132.793 310.966 132.706C311.322 132.62 311.657 132.459 311.947 132.234L316.895 128.365L315.159 128.786L311.493 131.65C311.286 131.811 311.047 131.926 310.792 131.988C310.537 132.049 310.272 132.056 310.015 132.008L305.452 131.139L286.157 127.463L266.845 123.785L224.546 115.725C224.186 115.653 223.814 115.661 223.457 115.749L222.568 116.994ZM221.556 118.867L243.329 208.924C243.491 209.589 243.909 210.163 244.493 210.52C245.077 210.877 245.778 210.987 246.443 210.827L404.027 172.629C404.692 172.468 405.265 172.048 405.621 171.464C405.978 170.879 406.088 170.177 405.927 169.511L384.155 79.454C384.054 79.0336 383.849 78.6454 383.559 78.3255C383.269 78.0056 382.903 77.7643 382.494 77.624C382.193 77.5179 381.874 77.4698 381.555 77.4824C381.183 77.4932 380.818 77.5893 380.488 77.7633C380.336 77.8356 380.193 77.9248 380.061 78.0292L367.128 88.1411L348.345 102.832L342.053 107.754L342.054 107.759L342.049 107.76L318.974 125.797L315.159 128.786L311.493 131.65C311.286 131.811 311.047 131.926 310.792 131.988C310.537 132.049 310.272 132.056 310.015 132.008L305.452 131.139L286.157 127.463L266.845 123.785L224.546 115.725C224.186 115.653 223.814 115.661 223.457 115.749C222.976 115.866 222.539 116.12 222.197 116.479C222.067 116.62 221.95 116.774 221.85 116.938C221.503 117.517 221.397 118.21 221.556 118.867ZM222.274 118.693C222.21 118.427 222.206 118.151 222.262 117.884C222.318 117.616 222.434 117.365 222.599 117.148C222.614 117.116 222.636 117.088 222.663 117.066C222.679 117.039 222.707 117.016 222.728 116.988C222.942 116.766 223.207 116.6 223.5 116.505C223.793 116.411 224.105 116.391 224.408 116.447L266.442 124.453L284.42 127.884L303.715 131.56L309.878 132.735C310.238 132.803 310.609 132.793 310.966 132.706C311.322 132.62 311.657 132.459 311.947 132.234L316.895 128.365L320.025 125.917L342.242 108.536L343.098 107.87L348.342 103.767L367.018 89.1638L380.519 78.6063C380.724 78.4461 380.961 78.3314 381.214 78.2699C381.285 78.2526 381.357 78.2408 381.429 78.2346C381.492 78.2232 381.556 78.217 381.62 78.2163C381.836 78.2143 382.051 78.2493 382.255 78.3199C382.546 78.4214 382.807 78.5941 383.014 78.8223C383.221 79.0505 383.368 79.3271 383.442 79.6267L405.215 169.684C405.272 169.92 405.282 170.165 405.245 170.405C405.207 170.645 405.123 170.875 404.997 171.082C404.87 171.289 404.704 171.47 404.508 171.613C404.312 171.756 404.09 171.859 403.854 171.916L246.271 210.113C245.795 210.228 245.294 210.148 244.877 209.893C244.46 209.637 244.161 209.226 244.047 208.75L222.274 118.693ZM284.42 127.884L303.715 131.56L309.878 132.735C310.238 132.803 310.609 132.793 310.966 132.706C311.322 132.62 311.657 132.459 311.947 132.234L316.895 128.365L315.159 128.786L311.493 131.65C311.286 131.811 311.047 131.926 310.792 131.988C310.537 132.049 310.272 132.056 310.015 132.008L305.452 131.139L286.157 127.463L284.42 127.884ZM284.42 127.884L303.715 131.56L309.878 132.735C310.238 132.803 310.609 132.793 310.966 132.706C311.322 132.62 311.657 132.459 311.947 132.234L316.895 128.365L315.159 128.786L311.493 131.65C311.286 131.811 311.047 131.926 310.792 131.988C310.537 132.049 310.272 132.056 310.015 132.008L305.452 131.139L286.157 127.463L284.42 127.884ZM284.42 127.884L303.715 131.56L309.878 132.735C310.238 132.803 310.609 132.793 310.966 132.706C311.322 132.62 311.657 132.459 311.947 132.234L316.895 128.365L315.159 128.786L311.493 131.65C311.286 131.811 311.047 131.926 310.792 131.988C310.537 132.049 310.272 132.056 310.015 132.008L305.452 131.139L286.157 127.463L284.42 127.884Z" fill="#3F3D56"/>
<path d="M362.956 154.939C362.601 153.464 362.845 151.907 363.635 150.612C364.424 149.316 365.695 148.387 367.168 148.028L387.057 143.207C388.529 142.856 390.08 143.103 391.37 143.894C392.66 144.685 393.584 145.957 393.94 147.429C394.296 148.901 394.055 150.455 393.269 151.75C392.483 153.044 391.217 153.974 389.748 154.336L369.858 159.157C368.385 159.512 366.83 159.268 365.536 158.477C364.242 157.687 363.314 156.414 362.956 154.939Z" fill="#0CBD92"/>
<path d="M143.158 138.212C145.88 138.212 148.088 136.002 148.088 133.276C148.088 130.55 145.88 128.34 143.158 128.34C140.435 128.34 138.228 130.55 138.228 133.276C138.228 136.002 140.435 138.212 143.158 138.212Z" fill="white"/>
</g>
<defs>
<clipPath id="clip0_1523_2315">
<rect width="406" height="348" fill="white"/>
</clipPath>
</defs>
</svg>
