<svg width="82" height="26" viewBox="0 0 82 26" fill="none" xmlns="http://www.w3.org/2000/svg">
<g clip-path="url(#clip0_1513_2288)">
<path d="M10.25 9.26027V12.0448H16.837C16.6442 13.599 16.1301 14.7323 15.3268 15.5417C14.3629 16.5131 12.8527 17.5816 10.25 17.5816C6.20141 17.5816 3.02038 14.279 3.02038 10.1993C3.02038 6.11955 6.16928 2.78456 10.25 2.78456C12.435 2.78456 14.0415 3.65878 15.2304 4.75965L17.1583 2.81694C15.5196 1.23039 13.3025 0 10.25 0C4.69122 0 0 4.56538 0 10.1669C0 15.7684 4.69122 20.3337 10.25 20.3337C13.2704 20.3337 15.5196 19.33 17.2868 17.4844C19.1183 15.6389 19.6646 13.0809 19.6646 10.9763C19.6646 10.3288 19.6324 9.74595 19.5039 9.2279H10.25V9.26027Z" fill="#4285F4"/>
<path d="M27.9224 6.99219C24.3237 6.99219 21.3676 9.74437 21.3676 13.565C21.3676 17.3533 24.2915 20.1379 27.9224 20.1379C31.5533 20.1379 34.4773 17.3533 34.4773 13.565C34.4451 9.74437 31.5212 6.99219 27.9224 6.99219ZM27.9224 17.5476C25.9624 17.5476 24.2594 15.8963 24.2594 13.565C24.2594 11.2014 25.9624 9.58247 27.9224 9.58247C29.8824 9.58247 31.5854 11.2014 31.5854 13.565C31.5854 15.8963 29.8824 17.5476 27.9224 17.5476Z" fill="#EA4335"/>
<path d="M59.9577 8.44922H59.8613C59.2186 7.67214 57.9976 6.99219 56.4232 6.99219C53.1779 6.99219 50.3182 9.8415 50.3182 13.565C50.3182 17.2562 53.1458 20.1379 56.4232 20.1379C57.9976 20.1379 59.2186 19.4256 59.8613 18.6485H59.9577V19.5551C59.9577 22.0482 58.6081 23.4081 56.4875 23.4081C54.7523 23.4081 53.6599 22.1454 53.21 21.0769L50.7359 22.113C51.4428 23.8614 53.3385 25.9984 56.5196 25.9984C59.8613 25.9984 62.721 24.0233 62.721 19.1665V7.34835H60.0219V8.44922H59.9577ZM56.6802 17.5476C54.7202 17.5476 53.21 15.8639 53.21 13.565C53.21 11.2338 54.7202 9.58247 56.6802 9.58247C58.6403 9.58247 60.1505 11.2662 60.1505 13.5974C60.1826 15.8639 58.6403 17.5476 56.6802 17.5476Z" fill="#4285F4"/>
<path d="M42.5102 6.99219C38.9114 6.99219 35.9553 9.74437 35.9553 13.565C35.9553 17.3533 38.8793 20.1379 42.5102 20.1379C46.1411 20.1379 49.065 17.3533 49.065 13.565C49.0329 9.74437 46.1089 6.99219 42.5102 6.99219ZM42.5102 17.5476C40.5502 17.5476 38.8472 15.8963 38.8472 13.565C38.8472 11.2014 40.5502 9.58247 42.5102 9.58247C44.4702 9.58247 46.1732 11.2014 46.1732 13.565C46.1732 15.8963 44.4702 17.5476 42.5102 17.5476Z" fill="#FBBC05"/>
<path d="M64.9381 0.257812H67.7657V20.1059H64.9381V0.257812Z" fill="#34A853"/>
<path d="M76.4412 17.5504C74.9953 17.5504 73.9671 16.8704 73.2923 15.5753L82 11.9489L81.7108 11.2042C81.1646 9.74714 79.5259 7.02734 76.152 7.02734C72.8103 7.02734 70.0149 9.68239 70.0149 13.6002C70.0149 17.2914 72.7782 20.173 76.4734 20.173C79.4616 20.173 81.1967 18.3275 81.9036 17.259L79.6865 15.7696C78.9154 16.8057 77.8871 17.5504 76.4412 17.5504ZM76.2484 9.45574C77.4052 9.45574 78.4013 10.0709 78.7226 10.9128L72.8425 13.3735C72.8103 10.589 74.7704 9.45574 76.2484 9.45574Z" fill="#EA4335"/>
</g>
<defs>
<clipPath id="clip0_1513_2288">
<rect width="82" height="26" fill="white"/>
</clipPath>
</defs>
</svg>
