<svg width="145" height="21" viewBox="0 0 145 21" fill="none" xmlns="http://www.w3.org/2000/svg">
<path fill-rule="evenodd" clip-rule="evenodd" d="M9.71238 0.760542C9.85944 0.306737 10.2824 0 10.7587 0C11.2349 0 11.6565 0.306737 11.8035 0.760542L13.6481 6.44428C13.7028 6.61096 13.8092 6.75662 13.9507 6.86026C14.0936 6.96391 14.2658 7.01995 14.4409 7.01995L20.4174 7.01713C20.8936 7.01713 21.3152 7.32387 21.4623 7.77768C21.6094 8.23008 21.4483 8.72592 21.0631 9.00605L16.2281 12.5174C16.0853 12.6211 15.9788 12.7667 15.9242 12.9334C15.8695 13.1015 15.871 13.2822 15.9242 13.4488L17.773 19.1312C17.9201 19.585 17.759 20.0808 17.3738 20.361C16.9887 20.6411 16.4662 20.6411 16.081 20.361L11.2489 16.8468C11.106 16.7431 10.9351 16.6871 10.7587 16.6871C10.5822 16.6871 10.4113 16.7431 10.2684 16.8468L5.43487 20.361C5.0497 20.6411 4.52862 20.6411 4.14345 20.361C3.75687 20.0808 3.59584 19.585 3.74431 19.1312L5.59174 13.4488C5.64636 13.2822 5.64636 13.1015 5.59174 12.9334C5.53852 12.7667 5.43206 12.6211 5.2892 12.5174L0.454225 9.00605C0.0690511 8.72592 -0.0934372 8.23008 0.0536291 7.77768C0.202096 7.32387 0.623699 7.01713 1.09991 7.01713L7.075 7.01995C7.25147 7.01995 7.42376 6.96391 7.56522 6.86026C7.70809 6.75662 7.81454 6.61096 7.86777 6.44428L9.71238 0.760542Z" fill="#F6BB06"/>
<path fill-rule="evenodd" clip-rule="evenodd" d="M40.5833 0.760542C40.7304 0.306737 41.1534 0 41.6296 0C42.1058 0 42.5274 0.306737 42.6745 0.760542L44.5191 6.44428C44.5737 6.61096 44.6802 6.75662 44.8217 6.86026C44.9645 6.96391 45.1368 7.01995 45.3119 7.01995L51.2884 7.01713C51.7646 7.01713 52.1862 7.32387 52.3333 7.77768C52.4803 8.23008 52.3192 8.72592 51.9341 9.00605L47.0991 12.5174C46.9562 12.6211 46.8498 12.7667 46.7951 12.9334C46.7405 13.1015 46.7419 13.2822 46.7951 13.4488L48.644 19.1312C48.7911 19.585 48.63 20.0808 48.2448 20.361C47.8596 20.6411 47.3372 20.6411 46.952 20.361L42.1199 16.8468C41.977 16.7431 41.8061 16.6871 41.6296 16.6871C41.4532 16.6871 41.2823 16.7431 41.1394 16.8468L36.3058 20.361C35.9207 20.6411 35.3996 20.6411 35.0144 20.361C34.6278 20.0808 34.4668 19.585 34.6153 19.1312L36.4627 13.4488C36.5173 13.2822 36.5173 13.1015 36.4627 12.9334C36.4095 12.7667 36.303 12.6211 36.1602 12.5174L31.3252 9.00605C30.94 8.72592 30.7775 8.23008 30.9246 7.77768C31.0731 7.32387 31.4947 7.01713 31.9709 7.01713L37.946 7.01995C38.1224 7.01995 38.2947 6.96391 38.4362 6.86026C38.5791 6.75662 38.6855 6.61096 38.7387 6.44428L40.5833 0.760542Z" fill="#F6BB06"/>
<path fill-rule="evenodd" clip-rule="evenodd" d="M71.4543 0.760542C71.6014 0.306737 72.0244 0 72.5006 0C72.9768 0 73.3984 0.306737 73.5455 0.760542L75.3901 6.44428C75.4447 6.61096 75.5512 6.75662 75.6926 6.86026C75.8355 6.96391 76.0078 7.01995 76.1829 7.01995L82.1593 7.01713C82.6356 7.01713 83.0572 7.32387 83.2042 7.77768C83.3513 8.23008 83.1902 8.72592 82.805 9.00605L77.9701 12.5174C77.8272 12.6211 77.7207 12.7667 77.6661 12.9334C77.6115 13.1015 77.6129 13.2822 77.6661 13.4488L79.515 19.1312C79.662 19.585 79.5009 20.0808 79.1158 20.361C78.7306 20.6411 78.2082 20.6411 77.823 20.361L72.9908 16.8468C72.848 16.7431 72.6771 16.6871 72.5006 16.6871C72.3241 16.6871 72.1532 16.7431 72.0104 16.8468L67.1768 20.361C66.7916 20.6411 66.2706 20.6411 65.8854 20.361C65.4988 20.0808 65.3378 19.585 65.4862 19.1312L67.3337 13.4488C67.3883 13.2822 67.3883 13.1015 67.3337 12.9334C67.2805 12.7667 67.174 12.6211 67.0311 12.5174L62.1962 9.00605C61.811 8.72592 61.6485 8.23008 61.7956 7.77768C61.944 7.32387 62.3656 7.01713 62.8418 7.01713L68.8169 7.01995C68.9934 7.01995 69.1657 6.96391 69.3072 6.86026C69.45 6.75662 69.5565 6.61096 69.6097 6.44428L71.4543 0.760542Z" fill="#F6BB06"/>
<path fill-rule="evenodd" clip-rule="evenodd" d="M102.325 0.760542C102.472 0.306737 102.895 0 103.372 0C103.848 0 104.269 0.306737 104.416 0.760542L106.261 6.44428C106.316 6.61096 106.422 6.75662 106.564 6.86026C106.706 6.96391 106.879 7.01995 107.054 7.01995L113.03 7.01713C113.507 7.01713 113.928 7.32387 114.075 7.77768C114.222 8.23008 114.061 8.72592 113.676 9.00605L108.841 12.5174C108.698 12.6211 108.592 12.7667 108.537 12.9334C108.482 13.1015 108.484 13.2822 108.537 13.4488L110.386 19.1312C110.533 19.585 110.372 20.0808 109.987 20.361C109.602 20.6411 109.079 20.6411 108.694 20.361L103.862 16.8468C103.719 16.7431 103.548 16.6871 103.372 16.6871C103.195 16.6871 103.024 16.7431 102.881 16.8468L98.0478 20.361C97.6626 20.6411 97.1415 20.6411 96.7563 20.361C96.3698 20.0808 96.2087 19.585 96.3572 19.1312L98.2046 13.4488C98.2593 13.2822 98.2593 13.1015 98.2046 12.9334C98.1514 12.7667 98.045 12.6211 97.9021 12.5174L93.0671 9.00605C92.682 8.72592 92.5195 8.23008 92.6665 7.77768C92.815 7.32387 93.2366 7.01713 93.7128 7.01713L99.6879 7.01995C99.8644 7.01995 100.037 6.96391 100.178 6.86026C100.321 6.75662 100.427 6.61096 100.481 6.44428L102.325 0.760542Z" fill="#F6BB06"/>
<path fill-rule="evenodd" clip-rule="evenodd" d="M133.196 0.760542C133.343 0.306737 133.766 0 134.243 0C134.719 0 135.14 0.306737 135.287 0.760542L137.132 6.44428C137.187 6.61096 137.293 6.75662 137.435 6.86026C137.577 6.96391 137.75 7.01995 137.925 7.01995L143.901 7.01713C144.377 7.01713 144.799 7.32387 144.946 7.77768C145.093 8.23008 144.932 8.72592 144.547 9.00605L139.712 12.5174C139.569 12.6211 139.463 12.7667 139.408 12.9334C139.353 13.1015 139.355 13.2822 139.408 13.4488L141.257 19.1312C141.404 19.585 141.243 20.0808 140.858 20.361C140.473 20.6411 139.95 20.6411 139.565 20.361L134.733 16.8468C134.59 16.7431 134.419 16.6871 134.243 16.6871C134.066 16.6871 133.895 16.7431 133.752 16.8468L128.919 20.361C128.534 20.6411 128.012 20.6411 127.627 20.361C127.241 20.0808 127.08 19.585 127.228 19.1312L129.076 13.4488C129.13 13.2822 129.13 13.1015 129.076 12.9334C129.022 12.7667 128.916 12.6211 128.773 12.5174L123.938 9.00605C123.553 8.72592 123.39 8.23008 123.538 7.77768C123.686 7.32387 124.108 7.01713 124.584 7.01713L130.559 7.01995C130.735 7.01995 130.908 6.96391 131.049 6.86026C131.192 6.75662 131.298 6.61096 131.352 6.44428L133.196 0.760542Z" fill="#F6BB06"/>
</svg>
